# xmcd
#
# Track frame offsets: 
#        150
#        15972
#        38965
#        52680
#        71547
#        92397
#        112562
#        133620
#        153227
#        169700
#        188142
#        204542
#        221882
#        238435
#        256855
#        274657
#        291115
#
# Disc length: 4222 seconds
#
# Revision: 3
# Processed by: cddbd v1.5.2PL0 Copyright (c) Steve Scherf et al.
# Submitted via: ExactAudioCopy v0.95b4
#
DISCID=e2107c11
DTITLE=Various Artist - Gold Ballads [CD 1)
DYEAR=1994
DGENRE=Ballad
TTITLE0=Mariah Carey - Without You
TTITLE1=Duran Duran - Ordinary Word
TTITLE2=Enigma - Return To Innocence
TTITLE3=Celine Dion - Power Of Love
TTITLE4=George Michael - Praying For Time
TTITLE5=Toni Braxton - Another Sad Love Song
TTITLE6=Eros Ramazzotti - Un Altra Te
TTITLE7=Joshua Kadison - Jessie
TTITLE8=Peter Cetera and Amy Grant - The Next Time I Fall
TTITLE9=Des'ree - You Gotta Be
TTITLE10=Haddaway - I Miss You
TTITLE11=Terence Trend D' Arby - Delicate
TTITLE12=Paul Young - Now I Know What Made Otis Blue
TTITLE13=Cher - Just Like Jessie James
TTITLE14=Beautiful World - In The Biginning
TTITLE15=Air Supply - Making Love
TTITLE16=Sandy Reed - Why
EXTD=
EXTT0=
EXTT1=
EXTT2=
EXTT3=
EXTT4=
EXTT5=
EXTT6=
EXTT7=
EXTT8=
EXTT9=
EXTT10=
EXTT11=
EXTT12=
EXTT13=
EXTT14=
EXTT15=
EXTT16=
PLAYORDER=
